<?xml version="1.0" encoding="utf-8"?>
<!-- Generator: Adobe Illustrator 16.0.0, SVG Export Plug-In . SVG Version: 6.00 Build 0)  -->
<!DOCTYPE svg PUBLIC "-//W3C//DTD SVG 1.1//EN" "http://www.w3.org/Graphics/SVG/1.1/DTD/svg11.dtd">
<svg version="1.1" id="레이어_1" xmlns="http://www.w3.org/2000/svg" xmlns:xlink="http://www.w3.org/1999/xlink" x="0px"
	 y="0px" width="319.722px" height="294.375px" viewBox="281.167 134.125 319.722 294.375"
	 enable-background="new 281.167 134.125 319.722 294.375" xml:space="preserve">
<g id="레이어_1_1_" display="none">
	
		<image display="inline" overflow="visible" enable-background="new    " width="564" height="564" xlink:href="251AA4D7.png"  transform="matrix(1.8723 0 0 1.8723 -295 -446)">
	</image>
</g>
<g id="레이어_2">
	
		<polyline fill="none" stroke="#FF9933" stroke-width="9" stroke-linecap="round" stroke-linejoin="round" stroke-miterlimit="10" points="
		313.5,258 313.5,222 447.5,139 581.5,223 581.5,305.684 	"/>
	
		<polyline fill="none" stroke="#FF9933" stroke-width="9" stroke-linecap="round" stroke-linejoin="round" stroke-miterlimit="10" points="
		313.5,257.625 313.5,221.625 447.5,138.625 581.5,222.625 581.5,305.684 	"/>
	
		<line fill="none" stroke="#FF9933" stroke-width="9" stroke-linecap="round" stroke-linejoin="round" stroke-miterlimit="10" x1="285.667" y1="333.339" x2="330.001" y2="337.672"/>
	
		<line fill="none" stroke="#FF9933" stroke-width="9" stroke-linecap="round" stroke-linejoin="round" stroke-miterlimit="10" x1="287.001" y1="365.339" x2="330.001" y2="355.005"/>
	
		<line fill="none" stroke="#FF9933" stroke-width="9" stroke-linecap="round" stroke-linejoin="round" stroke-miterlimit="10" x1="352.334" y1="322.339" x2="352.334" y2="335.506"/>
	
		<line fill="none" stroke="#FF9933" stroke-width="9" stroke-linecap="round" stroke-linejoin="round" stroke-miterlimit="10" x1="390.001" y1="322.339" x2="390.001" y2="335.506"/>
	<path fill="none" stroke="#FF9933" stroke-width="9" stroke-linecap="round" stroke-linejoin="round" stroke-miterlimit="10" d="
		M352.334,349c0,0-0.834,12.168,9.166,12.334S371.333,349,371.333,349S371,361.672,383,361.336C393,360.5,391,349,391,349"/>
	<path fill="none" stroke="#FF9933" stroke-width="9" stroke-linecap="round" stroke-linejoin="round" stroke-miterlimit="10" d="
		M511.833,297.667c0,0,8.166-9.333,16,0"/>
	<path fill="none" stroke="#FF9933" stroke-width="9" stroke-linecap="round" stroke-linejoin="round" stroke-miterlimit="10" d="
		M566.717,306.378c0,0-0.831,22.319,25.347,23.247"/>
	<path fill="none" stroke="#FF9933" stroke-width="9" stroke-linecap="round" stroke-linejoin="round" stroke-miterlimit="10" d="
		M557.719,362.613c0,0,11.281,13.428,24.531,10.387c13.667-5,2.295-20.385-2.836-22.269"/>
	<path fill="none" stroke="#FF9933" stroke-width="9" stroke-linecap="round" stroke-linejoin="round" stroke-miterlimit="10" d="
		M446.917,239.083c0,0-23.75-9.5-26.75-21s8-12.583,16.5-10.083c5.166-13.75,20.593-10.5,20.583,2.167
		C457.236,227.579,446.917,239.083,446.917,239.083z"/>
	<path fill="none" stroke="#FF9933" stroke-width="9" stroke-linecap="round" stroke-linejoin="round" stroke-miterlimit="10" d="
		M581.5,395v29h-268V304c0,0-0.25-16.5,8-25.75C333.25,288,344,300,344,300s28.25-14,56,0c13-14.25,24-27,24-27s40.25,18,51.5,60.75
		s-4.491,58.089-22.991,59s-32.475-18.5-33.176-46C418.909,311,450.5,247.75,499,251.5s40.335,33.834,58.501,46.667
		C575.167,313.5,611.25,297.5,589.75,337s-69.875,30.375-77.625,4.375"/>
	<path fill="none" stroke="#FF9933" stroke-width="9" stroke-linecap="round" stroke-linejoin="round" stroke-miterlimit="10" d="
		M581.5,326.021"/>
	<path fill="none" stroke="#FF9933" stroke-width="9" stroke-linecap="round" stroke-linejoin="round" stroke-miterlimit="10" d="
		M581.5,374.75"/>
</g>
</svg>
